# xmcd
#
# Track frame offsets:
#	150
#	16850
#	33395
#	51022
#	65065
#	84260
#	99112
#	115795
#	131717
#	144642
#	164710
#	181410
#	197955
#	215584
#	229625
#	248822
#	263672
#	280355
#	296277
#	309202
#
# Disc length: 4389 seconds
#
# Revision: 2
# Processed by: cddbd v1.5.2PL0 Copyright (c) Steve Scherf et al.
# Submitted via: audiograbber 1.83.01
#
DISCID=1c112314
DTITLE=Various Artist - THMC0108
DYEAR=1900
DGENRE=Karaoke
TTITLE0=Hill, Faith - There You'll Be (Vocals)
TTITLE1=Johnson, Carolyn Dawn - Complicated (Vocals)
TTITLE2=Worley, Darryl - Second Wind (Vocals)
TTITLE3=Gilman, Billy - She's My Girl (Vocals)
TTITLE4=Lonestar - I'm Already There (Vocals)
TTITLE5=Alabama - Will You Marry Me (Vocals)
TTITLE6=McCann, Lila - Come A Little Closer (Vocals)
TTITLE7=Trick Pony - On A Night Like This (Vocals)
TTITLE8=Urban, Keith - Where The Blacktop Ends (Vocals)
TTITLE9=Sons Of The Desert - What I Did Right (Vocals)
TTITLE10=Hill, Faith - There You'll Be
TTITLE11=Johnson, Carolyn Dawn - Complicated
TTITLE12=Worley, Darryl - Second Wind
TTITLE13=Gilman, Billy - She's My Girl
TTITLE14=Lonestar - I'm Already There
TTITLE15=Alabama - Will You Marry Me
TTITLE16=McCann, Lila - Come A Little Closer
TTITLE17=Trick Pony - On A Night Like This
TTITLE18=Urban, Keith - Where The Blacktop Ends
TTITLE19=Sons Of The Desert - What I Did Right
EXTD=
EXTT0=
EXTT1=
EXTT2=
EXTT3=
EXTT4=
EXTT5=
EXTT6=
EXTT7=
EXTT8=
EXTT9=
EXTT10=
EXTT11=
EXTT12=
EXTT13=
EXTT14=
EXTT15=
EXTT16=
EXTT17=
EXTT18=
EXTT19=
PLAYORDER=
